<svg xmlns="http://www.w3.org/2000/svg" viewBox="0 0 100 100">
  <g stroke="#1a1a1a" stroke-linecap="round">
    <line x1="79" y1="50" x2="96" y2="50" stroke-width="2"/>
    <line x1="77.6" y1="59" x2="83.3" y2="60.8" stroke-width="1.2"/>
    <line x1="73.5" y1="67" x2="82.4" y2="73.5" stroke-width="1.2"/>
    <line x1="67" y1="73.5" x2="70.5" y2="78.3" stroke-width="1.2"/>
    <line x1="59" y1="77.6" x2="64.9" y2="95.7" stroke-width="1.2"/>
    <line x1="50" y1="79" x2="50" y2="86" stroke-width="2"/>
    <line x1="41" y1="77.6" x2="37.3" y2="89" stroke-width="1.2"/>
    <line x1="33" y1="73.5" x2="30.1" y2="77.5" stroke-width="1.2"/>
    <line x1="26.5" y1="67" x2="12.8" y2="57" stroke-width="1.2"/>
    <line x1="22.4" y1="59" x2="15.7" y2="56.8" stroke-width="1.2"/>
    <line x1="21" y1="50" x2="10" y2="50" stroke-width="2"/>
    <line x1="22.4" y1="41" x2="16.7" y2="39.2" stroke-width="1.2"/>
    <line x1="26.5" y1="33" x2="11.1" y2="21.8" stroke-width="1.2"/>
    <line x1="33" y1="26.5" x2="29.5" y2="21.7" stroke-width="1.2"/>
    <line x1="41" y1="22.4" x2="37.3" y2="11" stroke-width="1.2"/>
    <line x1="50" y1="21" x2="50" y2="14" stroke-width="2"/>
    <line x1="59" y1="22.4" x2="64.3" y2="6.1" stroke-width="1.2"/>
    <line x1="67" y1="26.5" x2="69.9" y2="22.5" stroke-width="1.2"/>
    <line x1="73.5" y1="33" x2="82.4" y2="26.5" stroke-width="1.2"/>
    <line x1="77.6" y1="41" x2="84.3" y2="43.2" stroke-width="1.2"/>
  </g>
  <circle cx="50" cy="50" r="26" fill="#1a1a1a"/>
  <text x="50" y="51" text-anchor="middle" dominant-baseline="central" fill="#ffffff" font-size="28" font-family="Inter, sans-serif" font-weight="500">S</text>
</svg>
